<svg width="20" height="21" viewBox="0 0 20 21" fill="none" xmlns="http://www.w3.org/2000/svg">
<path d="M6.66663 4.74744C6.63648 4.74744 6.6052 4.73515 6.57955 4.70951C6.55391 4.68386 6.54163 4.65258 6.54163 4.62244V2.12244C6.54163 2.09229 6.55391 2.06101 6.57955 2.03536C6.6052 2.00972 6.63648 1.99744 6.66663 1.99744C6.69677 1.99744 6.72805 2.00972 6.7537 2.03536C6.77934 2.06101 6.79163 2.09229 6.79163 2.12244V4.62244C6.79163 4.65258 6.77934 4.68386 6.7537 4.70951C6.72805 4.73515 6.69677 4.74744 6.66663 4.74744Z" fill="#292D32" stroke="#33343E"/>
<path d="M13.3334 5.24744C12.9917 5.24744 12.7084 4.9641 12.7084 4.62244V2.12244C12.7084 1.78077 12.9917 1.49744 13.3334 1.49744C13.675 1.49744 13.9584 1.78077 13.9584 2.12244V4.62244C13.9584 4.9641 13.675 5.24744 13.3334 5.24744Z" fill="#292D32"/>
<path d="M7.08333 12.5391C6.975 12.5391 6.86667 12.5141 6.76667 12.4725C6.65833 12.4308 6.575 12.3724 6.49167 12.2974C6.34167 12.1391 6.25 11.9308 6.25 11.7058C6.25 11.5975 6.275 11.4891 6.31667 11.3891C6.35833 11.2891 6.41667 11.1975 6.49167 11.1141C6.575 11.0391 6.65833 10.9808 6.76667 10.9391C7.06667 10.8141 7.44167 10.8808 7.675 11.1141C7.825 11.2725 7.91667 11.4891 7.91667 11.7058C7.91667 11.7558 7.90833 11.8141 7.9 11.8725C7.89167 11.9225 7.875 11.9725 7.85 12.0225C7.83333 12.0725 7.80833 12.1225 7.775 12.1725C7.75 12.2141 7.70833 12.2558 7.675 12.2974C7.51667 12.4474 7.3 12.5391 7.08333 12.5391Z" fill="#292D32"/>
<path d="M9.99996 12.5392C9.89163 12.5392 9.78329 12.5142 9.68329 12.4725C9.57496 12.4308 9.49163 12.3725 9.40829 12.2975C9.25829 12.1392 9.16663 11.9308 9.16663 11.7058C9.16663 11.5975 9.19163 11.4892 9.23329 11.3892C9.27496 11.2892 9.33329 11.1975 9.40829 11.1142C9.49163 11.0392 9.57496 10.9808 9.68329 10.9391C9.98329 10.8058 10.3583 10.8808 10.5916 11.1142C10.7416 11.2725 10.8333 11.4892 10.8333 11.7058C10.8333 11.7558 10.825 11.8142 10.8166 11.8725C10.8083 11.9225 10.7916 11.9725 10.7666 12.0225C10.75 12.0725 10.725 12.1225 10.6916 12.1725C10.6666 12.2142 10.625 12.2558 10.5916 12.2975C10.4333 12.4475 10.2166 12.5392 9.99996 12.5392Z" fill="#292D32"/>
<path d="M12.9167 12.5392C12.8084 12.5392 12.7 12.5142 12.6 12.4725C12.4917 12.4308 12.4084 12.3725 12.325 12.2975C12.2917 12.2558 12.2584 12.2142 12.225 12.1725C12.1917 12.1225 12.1667 12.0725 12.15 12.0225C12.125 11.9725 12.1084 11.9225 12.1 11.8725C12.0917 11.8142 12.0834 11.7558 12.0834 11.7058C12.0834 11.4892 12.175 11.2725 12.325 11.1142C12.4084 11.0392 12.4917 10.9808 12.6 10.9391C12.9084 10.8058 13.275 10.8808 13.5084 11.1142C13.6584 11.2725 13.75 11.4892 13.75 11.7058C13.75 11.7558 13.7417 11.8142 13.7334 11.8725C13.725 11.9225 13.7084 11.9725 13.6834 12.0225C13.6667 12.0725 13.6417 12.1225 13.6084 12.1725C13.5834 12.2142 13.5417 12.2558 13.5084 12.2975C13.35 12.4475 13.1334 12.5392 12.9167 12.5392Z" fill="#292D32"/>
<path d="M7.08333 15.4558C6.975 15.4558 6.86667 15.4308 6.76667 15.3891C6.66667 15.3475 6.575 15.2891 6.49167 15.2141C6.34167 15.0558 6.25 14.8391 6.25 14.6225C6.25 14.5141 6.275 14.4058 6.31667 14.3058C6.35833 14.1975 6.41667 14.1058 6.49167 14.0308C6.8 13.7225 7.36667 13.7225 7.675 14.0308C7.825 14.1891 7.91667 14.4058 7.91667 14.6225C7.91667 14.8391 7.825 15.0558 7.675 15.2141C7.51667 15.3641 7.3 15.4558 7.08333 15.4558Z" fill="#292D32"/>
<path d="M9.99996 15.4558C9.78329 15.4558 9.56663 15.3641 9.40829 15.2141C9.25829 15.0558 9.16663 14.8391 9.16663 14.6225C9.16663 14.5141 9.19163 14.4058 9.23329 14.3058C9.27496 14.1975 9.33329 14.1058 9.40829 14.0308C9.71663 13.7225 10.2833 13.7225 10.5916 14.0308C10.6666 14.1058 10.725 14.1975 10.7666 14.3058C10.8083 14.4058 10.8333 14.5141 10.8333 14.6225C10.8333 14.8391 10.7416 15.0558 10.5916 15.2141C10.4333 15.3641 10.2166 15.4558 9.99996 15.4558Z" fill="#292D32"/>
<path d="M12.9167 15.4559C12.7 15.4559 12.4834 15.3642 12.325 15.2142C12.25 15.1392 12.1917 15.0475 12.15 14.9392C12.1084 14.8392 12.0834 14.7309 12.0834 14.6225C12.0834 14.5142 12.1084 14.4059 12.15 14.3059C12.1917 14.1975 12.25 14.1059 12.325 14.0309C12.5167 13.8392 12.8084 13.7475 13.075 13.8059C13.1334 13.8142 13.1834 13.8308 13.2334 13.8558C13.2834 13.8725 13.3334 13.8975 13.3834 13.9309C13.425 13.9559 13.4667 13.9975 13.5084 14.0309C13.6584 14.1892 13.75 14.4059 13.75 14.6225C13.75 14.8392 13.6584 15.0559 13.5084 15.2142C13.35 15.3642 13.1334 15.4559 12.9167 15.4559Z" fill="#292D32"/>
<path d="M17.0833 8.65576H2.91663C2.57496 8.65576 2.29163 8.37243 2.29163 8.03076C2.29163 7.68909 2.57496 7.40576 2.91663 7.40576H17.0833C17.425 7.40576 17.7083 7.68909 17.7083 8.03076C17.7083 8.37243 17.425 8.65576 17.0833 8.65576Z" fill="#292D32"/>
<path d="M13.3333 19.4141H6.66667C3.625 19.4141 1.875 17.6641 1.875 14.6224V7.5391C1.875 4.49744 3.625 2.74744 6.66667 2.74744H13.3333C16.375 2.74744 18.125 4.49744 18.125 7.5391V14.6224C18.125 17.6641 16.375 19.4141 13.3333 19.4141ZM6.66667 3.99744C4.28333 3.99744 3.125 5.15577 3.125 7.5391V14.6224C3.125 17.0058 4.28333 18.1641 6.66667 18.1641H13.3333C15.7167 18.1641 16.875 17.0058 16.875 14.6224V7.5391C16.875 5.15577 15.7167 3.99744 13.3333 3.99744H6.66667Z" fill="#292D32"/>
</svg>
