<svg width="16" height="16" viewBox="0 0 16 16" fill="none" xmlns="http://www.w3.org/2000/svg">
<path d="M3.69332 13.0132C3.28666 13.0132 2.90666 12.8732 2.63332 12.6132C2.28666 12.2865 2.11999 11.7932 2.17999 11.2599L2.42666 9.09987C2.47332 8.6932 2.71999 8.1532 3.00666 7.85987L8.47999 2.06654C9.84666 0.61987 11.2733 0.57987 12.72 1.94654C14.1667 3.3132 14.2067 4.73987 12.84 6.18654L7.36666 11.9799C7.08666 12.2799 6.56666 12.5599 6.15999 12.6265L4.01332 12.9932C3.89999 12.9999 3.79999 13.0132 3.69332 13.0132ZM10.62 1.93987C10.1067 1.93987 9.65999 2.25987 9.20666 2.73987L3.73332 8.53987C3.59999 8.67987 3.44666 9.0132 3.41999 9.20654L3.17332 11.3665C3.14666 11.5865 3.19999 11.7665 3.31999 11.8799C3.43999 11.9932 3.61999 12.0332 3.83999 11.9999L5.98666 11.6332C6.17999 11.5999 6.49999 11.4265 6.63332 11.2865L12.1067 5.4932C12.9333 4.6132 13.2333 3.79987 12.0267 2.66654C11.4933 2.1532 11.0333 1.93987 10.62 1.93987Z" fill="#8B8C99"/>
<path d="M11.56 7.29974C11.5466 7.29974 11.5266 7.29974 11.5133 7.29974C9.4333 7.09307 7.75996 5.51307 7.43996 3.4464C7.39996 3.17307 7.58663 2.91974 7.85996 2.87307C8.1333 2.83307 8.38663 3.01974 8.4333 3.29307C8.68663 4.9064 9.9933 6.1464 11.62 6.3064C11.8933 6.33307 12.0933 6.57974 12.0666 6.85307C12.0333 7.1064 11.8133 7.29974 11.56 7.29974Z" fill="#8B8C99"/>
<path d="M14 15.1665H2C1.72667 15.1665 1.5 14.9398 1.5 14.6665C1.5 14.3932 1.72667 14.1665 2 14.1665H14C14.2733 14.1665 14.5 14.3932 14.5 14.6665C14.5 14.9398 14.2733 15.1665 14 15.1665Z" fill="#8B8C99"/>
</svg>
