<svg width="121" height="128" viewBox="0 0 121 128" fill="none" xmlns="http://www.w3.org/2000/svg">
<path d="M66.2323 103.087C88.9991 103.087 107.456 84.6298 107.456 61.7818C107.456 38.9338 88.9178 20.4764 66.2323 20.4764C43.4656 20.4764 25.0083 38.9338 25.0083 61.7818C25.0083 84.6298 43.4656 103.087 66.2323 103.087Z" fill="#EAEEF9"/>
<path d="M104.772 34.7057C106.614 34.7057 108.106 33.2132 108.106 31.372C108.106 29.5309 106.614 28.0383 104.772 28.0383C102.931 28.0383 101.439 29.5309 101.439 31.372C101.439 33.2132 102.931 34.7057 104.772 34.7057Z" fill="#EAEEF9"/>
<path d="M109.652 21.6962C110.909 21.6962 111.928 20.6769 111.928 19.4195C111.928 18.1621 110.909 17.1428 109.652 17.1428C108.394 17.1428 107.375 18.1621 107.375 19.4195C107.375 20.6769 108.394 21.6962 109.652 21.6962Z" fill="#EAEEF9"/>
<path d="M27.2037 34.6245C28.461 34.6245 29.4803 33.6052 29.4803 32.3478C29.4803 31.0905 28.461 30.0712 27.2037 30.0712C25.9463 30.0712 24.927 31.0905 24.927 32.3478C24.927 33.6052 25.9463 34.6245 27.2037 34.6245Z" fill="#EAEEF9"/>
<path d="M13.2996 78.5317C15.6348 78.5317 17.5277 76.6387 17.5277 74.3036C17.5277 71.9684 15.6348 70.0754 13.2996 70.0754C10.9645 70.0754 9.07153 71.9684 9.07153 74.3036C9.07153 76.6387 10.9645 78.5317 13.2996 78.5317Z" fill="#EAEEF9"/>
<g filter="url(#filter0_d_1022_25306)">
<path d="M94.284 41.1293L94.9345 93.4927C94.9345 95.2816 93.4709 96.6638 91.6821 96.6638H40.6196C38.8308 96.6638 37.3672 95.2002 37.3672 93.4927V26.1683C37.3672 24.3795 38.8308 22.9972 40.6196 22.9972H77.6155L94.284 41.1293Z" fill="url(#paint0_linear_1022_25306)"/>
</g>
<path d="M62.2482 86.1748H60.378C59.9715 86.1748 59.6462 85.7683 59.6462 85.2804C59.6462 84.7925 59.9715 84.386 60.378 84.386H62.2482C62.6547 84.386 62.9799 84.7925 62.9799 85.2804C62.9799 85.8496 62.6547 86.1748 62.2482 86.1748Z" fill="#CED7E2"/>
<path d="M56.5565 86.1748H45.661C45.2544 86.1748 44.9292 85.7683 44.9292 85.2804C44.9292 84.7925 45.2544 84.386 45.661 84.386H56.5565C56.963 84.386 57.2883 84.7925 57.2883 85.2804C57.2883 85.8496 56.963 86.1748 56.5565 86.1748Z" fill="#D5DDEA"/>
<path d="M70.4605 33.9739H45.9862C45.4171 33.9739 44.9292 33.4861 44.9292 32.9169C44.9292 32.3477 45.4171 31.8599 45.9862 31.8599H70.4605C71.0296 31.8599 71.5175 32.3477 71.5175 32.9169C71.5175 33.4861 71.0296 33.9739 70.4605 33.9739Z" fill="#D5DDEA"/>
<path d="M55.4182 39.8283H45.9862C45.4171 39.8283 44.9292 39.3404 44.9292 38.7713C44.9292 38.2021 45.4171 37.7142 45.9862 37.7142H55.3368C55.906 37.7142 56.3939 38.2021 56.3939 38.7713C56.3939 39.3404 55.906 39.8283 55.4182 39.8283Z" fill="#D5DDEA"/>
<path d="M77.6152 22.9972V37.4703C77.6152 39.5031 79.404 41.1293 81.4368 41.1293H94.2837" fill="#D5DDEA"/>
<path d="M98.1864 97.8834C97.3733 97.8834 96.5602 97.5581 95.9098 96.8263L82.331 83.2476L81.8432 83.5728C77.4525 86.8252 72.3299 88.5327 67.1261 88.5327C60.8653 88.5327 54.6044 86.0121 49.9698 81.6214C45.0912 76.9868 42.408 70.7259 42.408 63.8959C42.408 50.3172 53.4661 39.259 67.0448 39.259C76.3141 39.259 84.4451 44.1376 88.8358 52.4312C93.1452 60.6435 92.5761 70.238 87.2909 77.9625L86.9657 78.4503L100.626 92.1104C102.008 93.4926 101.683 94.8749 101.439 95.6067C100.788 96.9076 99.4874 97.8834 98.1864 97.8834ZM67.0448 46.0077C57.125 46.0077 49.1567 54.0574 49.1567 63.8959C49.1567 75.1166 58.3447 81.8653 67.2887 81.8653C72.7365 81.8653 77.6964 79.426 81.1927 75.0353C85.5021 69.6689 86.2339 62.4323 83.2254 56.1715C80.1357 49.9106 73.9561 46.0077 67.0448 46.0077Z" fill="#989FB0"/>
<path d="M59.3198 66.8232C60.3769 66.8232 61.2713 65.9288 61.2713 64.8717C61.2713 63.8147 60.3769 62.9203 59.3198 62.9203C58.2628 62.9203 57.3684 63.8147 57.3684 64.8717C57.3684 65.9288 58.2628 66.8232 59.3198 66.8232Z" fill="#989FB0"/>
<path d="M74.2798 66.8232C75.3368 66.8232 76.2312 65.9288 76.2312 64.8717C76.2312 63.8147 75.3368 62.9203 74.2798 62.9203C73.2228 62.9203 72.3284 63.8147 72.3284 64.8717C72.3284 66.0101 73.2228 66.8232 74.2798 66.8232Z" fill="#989FB0"/>
<path d="M59.2431 58.4156L54.9504 60.7334L55.5299 61.8066L59.8226 59.4888L59.2431 58.4156Z" fill="#989FB0"/>
<path d="M74.0151 58.3847L73.4358 59.458L77.729 61.7753L78.3083 60.702L74.0151 58.3847Z" fill="#989FB0"/>
<path d="M66.7996 71.3764C68.057 71.3764 69.0763 70.612 69.0763 69.6689C69.0763 68.7259 68.057 67.9614 66.7996 67.9614C65.5423 67.9614 64.5229 68.7259 64.5229 69.6689C64.5229 70.612 65.5423 71.3764 66.7996 71.3764Z" fill="#989FB0"/>
<defs>
<filter id="filter0_d_1022_25306" x="16.4977" y="12.5624" width="99.3064" height="115.406" filterUnits="userSpaceOnUse" color-interpolation-filters="sRGB">
<feFlood flood-opacity="0" result="BackgroundImageFix"/>
<feColorMatrix in="SourceAlpha" type="matrix" values="0 0 0 0 0 0 0 0 0 0 0 0 0 0 0 0 0 0 127 0" result="hardAlpha"/>
<feOffset dy="10.4348"/>
<feGaussianBlur stdDeviation="10.4348"/>
<feColorMatrix type="matrix" values="0 0 0 0 0.397708 0 0 0 0 0.47749 0 0 0 0 0.575 0 0 0 0.27 0"/>
<feBlend mode="normal" in2="BackgroundImageFix" result="effect1_dropShadow_1022_25306"/>
<feBlend mode="normal" in="SourceGraphic" in2="effect1_dropShadow_1022_25306" result="shape"/>
</filter>
<linearGradient id="paint0_linear_1022_25306" x1="66.1321" y1="21.2932" x2="66.1321" y2="97.458" gradientUnits="userSpaceOnUse">
<stop stop-color="#FDFEFF"/>
<stop offset="0.9964" stop-color="#ECF0F5"/>
</linearGradient>
</defs>
</svg>
