
<svg width="18" height="25" viewBox="0 0 18 25" fill="none" xmlns="http://www.w3.org/2000/svg">
<path d="M11.6036 8.09182C11.5411 8.11482 11.4786 8.14032 11.4161 8.16082C11.4991 8.45582 12.0666 10.3318 13.4826 11.7458C13.6791 11.9413 13.6791 12.2573 13.4836 12.4528C13.3861 12.5508 13.2576 12.5998 13.1296 12.5998C13.0016 12.5998 12.8731 12.5508 12.7766 12.4538C11.9291 11.6083 11.3566 10.6353 10.9906 9.84982C10.7986 10.3428 10.5291 10.8838 10.1546 11.3603C9.9841 11.5778 9.6696 11.6163 9.4536 11.4448C9.2361 11.2743 9.1981 10.9598 9.3686 10.7433C9.9966 9.94382 10.2771 8.88732 10.3791 8.41532C9.8911 8.49882 9.4091 8.53582 8.9451 8.53582C7.7121 8.53582 6.6181 8.29382 5.9196 8.09232C3.2346 10.2693 -0.0204037 15.5138 9.63439e-05 19.8968C0.0110963 22.2503 1.2886 24.7828 4.0676 24.7828H13.4581H13.4726C15.6916 24.7158 17.6171 22.4293 17.5936 19.8898C17.5541 15.5008 14.2786 10.2633 11.6036 8.09182ZM8.7971 17.1973C10.0561 17.1973 11.0801 18.0688 11.0801 19.1408C11.0801 20.0663 10.3156 20.8388 9.2971 21.0333V21.6228C9.2971 21.8993 9.0736 22.1228 8.7971 22.1228C8.5206 22.1228 8.2971 21.8993 8.2971 21.6228V21.0333C7.2781 20.8383 6.5131 20.0648 6.5131 19.1408C6.5131 18.8643 6.7371 18.6408 7.0131 18.6408C7.2891 18.6408 7.5131 18.8643 7.5131 19.1408C7.5131 19.6518 8.1011 20.0838 8.7971 20.0838C9.4926 20.0838 10.0801 19.6528 10.0801 19.1408C10.0801 18.6298 9.4931 18.1973 8.7971 18.1973C7.5376 18.1973 6.5131 17.3258 6.5131 16.2533C6.5131 15.3283 7.2781 14.5553 8.2971 14.3613V13.8443C8.2971 13.5678 8.5211 13.3443 8.7971 13.3443C9.0731 13.3443 9.2971 13.5678 9.2971 13.8443V14.3613C10.3156 14.5563 11.0801 15.3293 11.0801 16.2533C11.0801 16.5303 10.8566 16.7533 10.5801 16.7533C10.3036 16.7533 10.0801 16.5303 10.0801 16.2533C10.0801 15.7643 9.5391 15.3058 8.7941 15.3058C8.0491 15.3058 7.5126 15.7648 7.5126 16.2533C7.5131 16.7653 8.1011 17.1973 8.7971 17.1973ZM5.7081 6.97482C4.4651 5.66882 3.2716 3.79782 3.2911 2.76632C3.3131 2.30182 3.3906 1.81632 3.8016 1.62782C4.2371 1.42832 4.6376 1.74032 4.9896 2.01432C5.2206 2.19432 5.5701 2.46232 5.7461 2.42782C5.8486 2.40432 5.9836 2.24482 6.3826 1.66632C6.7821 1.08732 7.2681 0.745818 7.7676 0.783318C8.3746 0.827818 8.6886 1.40432 8.9926 1.96232C9.2306 2.37182 9.4406 2.74182 9.7386 3.03532C9.8181 2.96782 9.9466 2.81182 10.0366 2.70182C10.5276 2.10382 11.4421 0.989318 13.3676 1.75982C13.5581 1.83532 13.6821 2.01982 13.6821 2.22432C13.6821 3.59632 12.6926 5.63832 11.6276 7.00282C9.2511 8.05532 6.4636 7.23532 5.7081 6.97482Z" fill="#1AA7E8"/>
</svg>
