<svg width="23" height="23" viewBox="0 0 23 23" fill="none" xmlns="http://www.w3.org/2000/svg">
<g clip-path="url(#clip0_1068_22623)">
<path d="M17.5356 11.7971H20.1135V17.9698H17.5356V11.7971Z" fill="#2563EB"/>
<path d="M12.6536 11.7971H15.2317V17.9698H12.6536V11.7971Z" fill="#2563EB"/>
<path d="M7.77167 11.7971H10.3498V17.9698H7.77167V11.7971Z" fill="#2563EB"/>
<path d="M2.88977 11.7971H5.46772V17.9698H2.88977V11.7971Z" fill="#2563EB"/>
<path d="M20.973 9.86346V9.21893H2.0304V9.86346C2.0304 10.2195 2.31892 10.508 2.67493 10.508H20.3285C20.6844 10.508 20.973 10.2195 20.973 9.86346Z" fill="#2563EB"/>
<path d="M21.8568 19.2589H1.14685C0.790848 19.2589 0.502319 19.5474 0.502319 19.9034V21.6221C0.502319 21.9781 0.790848 22.2667 1.14685 22.2667H21.8568C22.2128 22.2667 22.5013 21.9781 22.5013 21.6221V19.9034C22.5013 19.5474 22.2128 19.2589 21.8568 19.2589Z" fill="#2563EB"/>
<path d="M1.14618 7.9298H21.8571C22.1455 7.9298 22.3988 7.73829 22.4773 7.46084C22.5557 7.18339 22.4405 6.88747 22.195 6.73641L11.8395 0.362274C11.6324 0.234711 11.3711 0.234711 11.1638 0.362274L0.808307 6.73641C0.562748 6.88764 0.447605 7.18339 0.526157 7.46084C0.604709 7.73829 0.85799 7.9298 1.14618 7.9298ZM11.0636 4.05758H11.9399C12.2959 4.05758 12.5844 4.34611 12.5844 4.70211C12.5844 5.05812 12.2959 5.34664 11.9399 5.34664H11.0636C10.7076 5.34664 10.419 5.05812 10.419 4.70211C10.419 4.34611 10.7076 4.05758 11.0636 4.05758Z" fill="#2563EB"/>
</g>
<defs>
<clipPath id="clip0_1068_22623">
<rect width="22" height="22" fill="white" transform="translate(0.501648 0.266602)"/>
</clipPath>
</defs>
</svg>
