
<svg width="28" height="19" viewBox="0 0 28 19" fill="none" xmlns="http://www.w3.org/2000/svg">
<g clip-path="url(#clip0_1175_30084)">
<path d="M5.11839 12.9233H20.3675C20.48 12.489 20.7065 12.0927 21.0237 11.7755C21.3409 11.4583 21.7373 11.2317 22.1715 11.1193V5.92729C21.7373 5.81487 21.3409 5.58831 21.0237 5.2711C20.7065 4.95389 20.48 4.55758 20.3675 4.12329H5.11839C5.00598 4.55758 4.77941 4.95389 4.4622 5.2711C4.14499 5.58831 3.74868 5.81487 3.31439 5.92729V11.1193C3.74868 11.2317 4.14499 11.4583 4.4622 11.7755C4.77941 12.0927 5.00598 12.489 5.11839 12.9233ZM10.8573 9.78044C10.8573 9.61373 10.9235 9.45385 11.0414 9.33597C11.1592 9.21809 11.3191 9.15186 11.4858 9.15186C11.6525 9.15186 11.8124 9.21809 11.9303 9.33597C12.0482 9.45385 12.1144 9.61373 12.1144 9.78044V9.87472C12.1144 9.94488 12.1282 10.0144 12.1551 10.0792C12.1819 10.144 12.2213 10.2029 12.2709 10.2525C12.3205 10.3021 12.3794 10.3415 12.4442 10.3683C12.509 10.3952 12.5785 10.409 12.6487 10.409H12.8373C12.9074 10.409 12.9769 10.3952 13.0417 10.3683C13.1065 10.3415 13.1654 10.3021 13.2151 10.2525C13.2647 10.2029 13.304 10.144 13.3309 10.0792C13.3577 10.0144 13.3715 9.94488 13.3715 9.87472C13.3719 9.7746 13.3445 9.67633 13.2924 9.59088C13.2402 9.50542 13.1653 9.43612 13.0761 9.39072L11.819 8.76215C11.5055 8.59865 11.2476 8.34576 11.0781 8.03553C10.9085 7.72529 10.8349 7.3717 10.8665 7.01957C10.8981 6.66743 11.0336 6.33263 11.2558 6.0576C11.478 5.78257 11.7768 5.5797 12.1144 5.47472V5.38043C12.1144 5.21373 12.1806 5.05385 12.2985 4.93597C12.4164 4.81809 12.5763 4.75186 12.743 4.75186C12.9097 4.75186 13.0696 4.81809 13.1874 4.93597C13.3053 5.05385 13.3715 5.21373 13.3715 5.38043V5.47472C13.7344 5.58706 14.0519 5.81221 14.278 6.11743C14.5041 6.42265 14.627 6.79203 14.6287 7.17186V7.26615C14.6287 7.43286 14.5625 7.59274 14.4446 7.71062C14.3267 7.8285 14.1668 7.89472 14.0001 7.89472C13.8334 7.89472 13.6735 7.8285 13.5556 7.71062C13.4378 7.59274 13.3715 7.43286 13.3715 7.26615V7.17186C13.3715 7.03016 13.3152 6.89426 13.2151 6.79407C13.1149 6.69387 12.979 6.63758 12.8373 6.63758H12.6487C12.507 6.63758 12.3711 6.69387 12.2709 6.79407C12.1707 6.89426 12.1144 7.03016 12.1144 7.17186C12.114 7.27198 12.1414 7.37025 12.1936 7.45571C12.2457 7.54117 12.3206 7.61046 12.4098 7.65586L13.667 8.28444C13.9804 8.44793 14.2383 8.70082 14.4079 9.01106C14.5775 9.32129 14.6511 9.67489 14.6194 10.027C14.5878 10.3791 14.4523 10.714 14.2301 10.989C14.008 11.264 13.7091 11.4669 13.3715 11.5719V11.6662C13.3715 11.8329 13.3053 11.9927 13.1874 12.1106C13.0696 12.2285 12.9097 12.2947 12.743 12.2947C12.5763 12.2947 12.4164 12.2285 12.2985 12.1106C12.1806 11.9927 12.1144 11.8329 12.1144 11.6662V11.5719C11.7516 11.4595 11.434 11.2344 11.2079 10.9292C10.9818 10.6239 10.859 10.2546 10.8573 9.87472V9.78044Z" fill="#42AA10"/>
<path d="M0.800019 16.0663H24.6857C24.8525 16.0663 25.0123 16.0001 25.1302 15.8822C25.2481 15.7643 25.3143 15.6044 25.3143 15.4377V1.60916C25.3143 1.44245 25.2481 1.28258 25.1302 1.1647C25.0123 1.04682 24.8525 0.980591 24.6857 0.980591H0.800019C0.633312 0.980591 0.473432 1.04682 0.355552 1.1647C0.237672 1.28258 0.171448 1.44245 0.171448 1.60916V15.4377C0.171448 15.6044 0.237672 15.7643 0.355552 15.8822C0.473432 16.0001 0.633312 16.0663 0.800019 16.0663ZM2.05716 5.38059C2.05716 5.21388 2.12339 5.054 2.24127 4.93612C2.35915 4.81824 2.51903 4.75202 2.68573 4.75202C3.01915 4.75202 3.33891 4.61957 3.57467 4.38381C3.81043 4.14805 3.94288 3.82829 3.94288 3.49488C3.94288 3.32817 4.0091 3.16829 4.12698 3.05041C4.24486 2.93253 4.40474 2.86631 4.57145 2.86631H20.9143C21.081 2.86631 21.2409 2.93253 21.3588 3.05041C21.4767 3.16829 21.5429 3.32817 21.5429 3.49488C21.5429 3.82829 21.6753 4.14805 21.9111 4.38381C22.1469 4.61957 22.4666 4.75202 22.8 4.75202C22.9667 4.75202 23.1266 4.81824 23.2445 4.93612C23.3624 5.054 23.4286 5.21388 23.4286 5.38059V11.6663C23.4286 11.833 23.3624 11.9929 23.2445 12.1108C23.1266 12.2287 22.9667 12.2949 22.8 12.2949C22.4666 12.2949 22.1469 12.4273 21.9111 12.6631C21.6753 12.8988 21.5429 13.2186 21.5429 13.552C21.5429 13.7187 21.4767 13.8786 21.3588 13.9965C21.2409 14.1144 21.081 14.1806 20.9143 14.1806H4.57145C4.40474 14.1806 4.24486 14.1144 4.12698 13.9965C4.0091 13.8786 3.94288 13.7187 3.94288 13.552C3.94288 13.2186 3.81043 12.8988 3.57467 12.6631C3.33891 12.4273 3.01915 12.2949 2.68573 12.2949C2.51903 12.2949 2.35915 12.2287 2.24127 12.1108C2.12339 11.9929 2.05716 11.833 2.05716 11.6663V5.38059Z" fill="#42AA10"/>
<path d="M27.2001 3.49475H26.5716V15.4376C26.5716 15.9377 26.3729 16.4174 26.0193 16.771C25.6656 17.1247 25.186 17.3233 24.6859 17.3233H2.68585V17.9519C2.68585 18.1186 2.75208 18.2785 2.86996 18.3964C2.98784 18.5142 3.14772 18.5805 3.31442 18.5805H27.2001C27.3669 18.5805 27.5267 18.5142 27.6446 18.3964C27.7625 18.2785 27.8287 18.1186 27.8287 17.9519V4.12332C27.8287 3.95662 27.7625 3.79674 27.6446 3.67886C27.5267 3.56098 27.3669 3.49475 27.2001 3.49475Z" fill="#42AA10"/>
</g>
<defs>
<clipPath id="clip0_1175_30084">
<rect width="28" height="18" fill="white" transform="translate(0 0.780518)"/>
</clipPath>
</defs>
</svg>
