
<svg width="28" height="19" viewBox="0 0 28 19" fill="none" xmlns="http://www.w3.org/2000/svg">
<path fill-rule="evenodd" clip-rule="evenodd" d="M2.90176 0.780518H23.0982C24.6964 0.780518 25.9999 1.98667 25.9999 3.46553V4.39131H0V3.46553C0 1.98667 1.30352 0.780518 2.90176 0.780518ZM9.34445 14.3236C8.98549 14.3236 8.69445 14.0543 8.69445 13.7222C8.69445 13.39 8.98549 13.1207 9.34445 13.1207H11.3787C11.7377 13.1207 12.0287 13.39 12.0287 13.7222C12.0287 14.0543 11.7377 14.3236 11.3787 14.3236H9.34445ZM4.0677 14.3236C3.70874 14.3236 3.4177 14.0543 3.4177 13.7222C3.4177 13.39 3.70874 13.1207 4.0677 13.1207H6.10198C6.46095 13.1207 6.75198 13.39 6.75198 13.7222C6.75198 14.0543 6.46095 14.3236 6.10198 14.3236H4.0677ZM19.898 14.3236C19.5391 14.3236 19.248 14.0543 19.248 13.7222C19.248 13.39 19.5391 13.1207 19.898 13.1207H21.9324C22.2913 13.1207 22.5824 13.39 22.5824 13.7222C22.5824 14.0543 22.2913 14.3236 21.9324 14.3236H19.898ZM14.6212 14.3236C14.2622 14.3236 13.9712 14.0543 13.9712 13.7222C13.9712 13.39 14.2622 13.1207 14.6212 13.1207H16.6555C17.0145 13.1207 17.3055 13.39 17.3055 13.7222C17.3055 14.0543 17.0145 14.3236 16.6555 14.3236H14.6212ZM26 5.5942H0V15.0955C0 16.5744 1.30352 17.7805 2.90176 17.7805H23.0982C24.6964 17.7805 25.9999 16.5744 25.9999 15.0955V5.5942H26ZM4.22673 7.71385H7.31136C7.6973 7.71385 8.01206 8.0051 8.01206 8.36221V10.1878C8.01206 10.5449 7.6973 10.8362 7.31136 10.8362H4.22673C3.8408 10.8362 3.52603 10.5449 3.52603 10.1878V8.36221C3.52598 8.0051 3.84074 7.71385 4.22673 7.71385Z" fill="#F38200"/>
</svg>
